<?xml version="1.0" standalone="no"?><!DOCTYPE svg PUBLIC "-//W3C//DTD SVG 1.1//EN" "http://www.w3.org/Graphics/SVG/1.1/DTD/svg11.dtd"><svg t="1577177092988" class="icon" viewBox="0 0 1024 1024" version="1.1" xmlns="http://www.w3.org/2000/svg" p-id="2678" width="18" height="18" xmlns:xlink="http://www.w3.org/1999/xlink"><defs><style type="text/css"></style></defs><path d="M213.333333 128h597.333334a85.333333 85.333333 0 0 1 85.333333 85.333333v597.333334a85.333333 85.333333 0 0 1-85.333333 85.333333H213.333333a85.333333 85.333333 0 0 1-85.333333-85.333333V213.333333a85.333333 85.333333 0 0 1 85.333333-85.333333z m366.933334 128h34.133333a25.6 25.6 0 0 1 25.6 25.6v119.466667a25.6 25.6 0 0 1-25.6 25.6h-34.133333a25.6 25.6 0 0 1-25.6-25.6V281.6a25.6 25.6 0 0 1 25.6-25.6zM213.333333 213.333333v597.333334h597.333334V213.333333H213.333333z m128 0v256h341.333334V213.333333h85.333333v298.666667a42.666667 42.666667 0 0 1-42.666667 42.666667H298.666667a42.666667 42.666667 0 0 1-42.666667-42.666667V213.333333h85.333333zM256 213.333333h85.333333-85.333333z m426.666667 0h85.333333-85.333333z m0 597.333334v-128H341.333333v128H256v-170.666667a42.666667 42.666667 0 0 1 42.666667-42.666667h426.666666a42.666667 42.666667 0 0 1 42.666667 42.666667v170.666667h-85.333333z m85.333333 0h-85.333333 85.333333zM341.333333 810.666667H256h85.333333z" p-id="2679" fill="#2c2c2c"></path></svg>