<?xml version="1.0" standalone="no"?><!DOCTYPE svg PUBLIC "-//W3C//DTD SVG 1.1//EN" "http://www.w3.org/Graphics/SVG/1.1/DTD/svg11.dtd"><svg t="1653294754352" class="icon" viewBox="0 0 1024 1024" version="1.1" xmlns="http://www.w3.org/2000/svg" p-id="21702" xmlns:xlink="http://www.w3.org/1999/xlink" width="64" height="64"><defs><style type="text/css">@font-face { font-family: feedback-iconfont; src: url("//at.alicdn.com/t/font_1031158_u69w8yhxdu.woff2?t=1630033759944") format("woff2"), url("//at.alicdn.com/t/font_1031158_u69w8yhxdu.woff?t=1630033759944") format("woff"), url("//at.alicdn.com/t/font_1031158_u69w8yhxdu.ttf?t=1630033759944") format("truetype"); }
</style></defs><path d="M810.59498 480.877141a37.329226 37.329226 0 0 1 28.636119 12.272622l170.793995 171.816714a38.863304 38.863304 0 0 1 0 56.760879l-289.429345 289.429345a35.283789 35.283789 0 0 1-28.12476 12.272622h-171.305354a40.908741 40.908741 0 0 1-40.908742-40.908741v-175.396229a37.329226 37.329226 0 0 1 12.272623-28.636119l289.429345-285.338471a37.329226 37.329226 0 0 1 28.636119-12.272622zM489.46136 0.19943a283.293034 283.293034 0 0 1 285.338471 285.338471 272.04313 272.04313 0 0 1-16.363497 97.66962 41.93146 41.93146 0 0 1-51.135926 24.545245 42.442819 42.442819 0 0 1-24.545245-51.135927 204.543707 204.543707 0 0 0 12.272622-69.033501 204.543707 204.543707 0 1 0-409.087413 0 201.475551 201.475551 0 0 0 204.543707 204.543707 40.908741 40.908741 0 0 1 0 81.817483 409.087413 409.087413 0 0 0-409.087414 409.087413 38.863304 38.863304 0 0 1-40.908741 40.908741 38.351945 38.351945 0 0 1-40.397382-40.908741 489.882178 489.882178 0 0 1 325.735853-460.22334A283.804393 283.804393 0 0 1 489.46136 0.19943z m215.282251 683.68734l-142.157876 143.180595v114.544475h114.033117l141.646517-142.669235-109.942243-110.453602a4.090874 4.090874 0 0 1-4.090874-4.090874z m105.851369-109.942242l-51.135927 51.135926a4.090874 4.090874 0 0 0 4.090874 4.090874l109.942242 109.942243 51.135927-51.135927z" p-id="21703"></path></svg>