<?xml version="1.0" standalone="no"?><!DOCTYPE svg PUBLIC "-//W3C//DTD SVG 1.1//EN" "http://www.w3.org/Graphics/SVG/1.1/DTD/svg11.dtd"><svg t="1655807722606" class="icon" viewBox="0 0 1024 1024" version="1.1" xmlns="http://www.w3.org/2000/svg" p-id="3304" xmlns:xlink="http://www.w3.org/1999/xlink" width="64" height="64"><defs><style type="text/css">@font-face { font-family: feedback-iconfont; src: url("//at.alicdn.com/t/font_1031158_u69w8yhxdu.woff2?t=1630033759944") format("woff2"), url("//at.alicdn.com/t/font_1031158_u69w8yhxdu.woff?t=1630033759944") format("woff"), url("//at.alicdn.com/t/font_1031158_u69w8yhxdu.ttf?t=1630033759944") format("truetype"); }
</style></defs><path d="M438.857143 146.285714c0-43.885714-29.257143-73.142857-73.142857-73.142857H146.285714c-43.885714 0-73.142857 29.257143-73.142857 73.142857v731.428572c0 43.885714 29.257143 73.142857 73.142857 73.142857h292.571429V146.285714zM146.285714 0h219.428572c80.457143 0 146.285714 65.828571 146.285714 146.285714v877.714286H146.285714c-80.457143 0-146.285714-65.828571-146.285714-146.285714V146.285714C0 65.828571 65.828571 0 146.285714 0z m36.571429 219.428571h146.285714c21.942857 0 36.571429 14.628571 36.571429 36.571429s-14.628571 36.571429-36.571429 36.571429h-146.285714c-21.942857 0-36.571429-14.628571-36.571429-36.571429s14.628571-36.571429 36.571429-36.571429z m0 219.428572h146.285714c21.942857 0 36.571429 14.628571 36.571429 36.571428s-14.628571 36.571429-36.571429 36.571429h-146.285714c-21.942857 0-36.571429-14.628571-36.571429-36.571429s14.628571-36.571429 36.571429-36.571428z m0 219.428571h146.285714c21.942857 0 36.571429 14.628571 36.571429 36.571429s-14.628571 36.571429-36.571429 36.571428h-146.285714c-21.942857 0-36.571429-14.628571-36.571429-36.571428s14.628571-36.571429 36.571429-36.571429z m512-219.428571c21.942857 0 36.571429 14.628571 36.571428 36.571428v73.142858c0 21.942857-14.628571 36.571429-36.571428 36.571428S658.285714 570.514286 658.285714 548.571429v-73.142858c0-21.942857 14.628571-36.571429 36.571429-36.571428z m0 219.428571c21.942857 0 36.571429 14.628571 36.571428 36.571429v73.142857c0 21.942857-14.628571 36.571429-36.571428 36.571429s-36.571429-14.628571-36.571429-36.571429v-73.142857c0-21.942857 14.628571-36.571429 36.571429-36.571429zM512 950.857143h365.714286V438.857143c0-43.885714-29.257143-73.142857-73.142857-73.142857H512v585.142857zM438.857143 292.571429h365.714286c80.457143 0 146.285714 65.828571 146.285714 146.285714v585.142857H438.857143V292.571429z" p-id="3305"></path></svg>