<?xml version="1.0" standalone="no"?><!DOCTYPE svg PUBLIC "-//W3C//DTD SVG 1.1//EN" "http://www.w3.org/Graphics/SVG/1.1/DTD/svg11.dtd"><svg t="1655808841180" class="icon" viewBox="0 0 1024 1024" version="1.1" xmlns="http://www.w3.org/2000/svg" p-id="5078" xmlns:xlink="http://www.w3.org/1999/xlink" width="64" height="64"><defs><style type="text/css">@font-face { font-family: feedback-iconfont; src: url("//at.alicdn.com/t/font_1031158_u69w8yhxdu.woff2?t=1630033759944") format("woff2"), url("//at.alicdn.com/t/font_1031158_u69w8yhxdu.woff?t=1630033759944") format("woff"), url("//at.alicdn.com/t/font_1031158_u69w8yhxdu.ttf?t=1630033759944") format("truetype"); }
</style></defs><path d="M790.258 29.132l-634.1 0c-34.105 0-51.181 17.076-51.181 51.181l0 801.316c0 34.105 17.074 51.184 51.181 51.184l634.1 0c34.146 0 51.184-17.078 51.184-51.184l0-801.316c0-34.105-17.036-51.181-51.184-51.181zM809.808 877.397c0 11.39-9.206 20.595-20.595 20.595l-633.536 0c-11.382 0-20.593-9.206-20.593-20.595l0-794.428c0-11.385 9.211-20.593 20.593-20.593l633.537 0c11.39 0 20.595 9.209 20.595 20.593l0 794.428-0.001 0zM268.169 141.433l411.831 0 0 27.024-411.831 0 0-27.024zM268.169 246.122l411.831 0 0 27.024-411.831 0 0-27.024zM268.169 348.239l411.831 0 0 27.024-411.831 0 0-27.024zM508.608 460.902c31.363 15.185 33.464 16.435 33.464 16.435l137.928 0 0-26.984-217.076 0c0-0.003 14.637-0.991 45.685 10.548zM390.21 477.085c-105.009 0-179.562 74.504-179.562 179.558 0 105.013 74.553 179.564 179.562 179.564 105.029 0 179.558-74.551 179.558-179.564 0.006-105.054-74.529-179.558-179.558-179.558zM390.21 821.053c-90.814 0-164.412-73.64-164.412-164.408 0-90.812 73.598-164.409 164.412-164.409 90.789 0 164.409 73.598 164.409 164.409 0.001 90.769-73.62 164.408-164.409 164.408zM405.922 573.27c4.53 12.972 17.573 50.004 17.573 50.004s37.59-0.104 56.074 0c12.201 0.068 16.525 7.604 6.062 16.105-10.461 8.509-45.604 36.825-45.604 36.825s13.425 42.235 17.156 53.977c3.729 11.73-4.466 17.01-12.138 11.503-7.668-5.509-47.947-34.105-47.947-34.105s-38.703 27.701-47.659 34.105c-8.952 6.409-15.549-1.464-12.551-10.882 2.997-9.413 17.363-54.596 17.363-54.596s-38.073-30.691-45.902-36.995c-7.828-6.31-8.073-16.288 4.691-16.147 12.758 0.139 57.529 0 57.529 0s13.184-37.564 17.363-49.792c4.537-13.252 13.462-12.972 17.995 0zM397.094 573.689c0 0-18.512 52.021-19.306 54.187-0.803 2.162-3.141 3.868-5.648 3.868-1.85 0-59.628 0-59.628 0s45.297 36.576 47.701 38.392c2.822 2.125 3.388 4.643 2.512 7.422-0.883 2.778-17.89 56.696-17.89 56.696s46.691-33.416 48.957-34.938c1.917-1.293 4.567-1.335 6.59 0.104 2.026 1.439 49.062 34.834 49.062 34.834s-17.229-54.302-18.102-56.801c-0.799-2.301-0.206-5.193 1.677-6.59 1.74-1.293 48.636-39.231 48.636-39.231s-56.97-0.068-59.724-0.104c-2.757-0.031-4.419-0.943-5.543-3.656-0.725-1.758-19.29-54.187-19.29-54.187z" p-id="5079"></path></svg>