<?xml version="1.0" standalone="no"?><!DOCTYPE svg PUBLIC "-//W3C//DTD SVG 1.1//EN" "http://www.w3.org/Graphics/SVG/1.1/DTD/svg11.dtd"><svg t="1654067851951" class="icon" viewBox="0 0 1024 1024" version="1.1" xmlns="http://www.w3.org/2000/svg" p-id="3595" xmlns:xlink="http://www.w3.org/1999/xlink" width="48" height="48"><defs><style type="text/css">@font-face { font-family: feedback-iconfont; src: url("//at.alicdn.com/t/font_1031158_u69w8yhxdu.woff2?t=1630033759944") format("woff2"), url("//at.alicdn.com/t/font_1031158_u69w8yhxdu.woff?t=1630033759944") format("woff"), url("//at.alicdn.com/t/font_1031158_u69w8yhxdu.ttf?t=1630033759944") format("truetype"); }
</style></defs><path d="M288 192H128V128c0-38.4-25.6-64-64-64s-64 25.6-64 64v832c0 38.4 25.6 64 64 64s64-25.6 64-64h160C377.6 960 448 889.6 448 800v-448C448 262.4 377.6 192 288 192zM128 339.2L339.2 576 128 812.8V339.2z m256 460.8c0 51.2-44.8 96-96 96H134.4L384 620.8v179.2z m0-268.8L134.4 256h153.6C339.2 256 384 300.8 384 352v179.2zM896 64c-38.4 0-64 25.6-64 64v64h-160C582.4 192 512 262.4 512 352v448c0 89.6 70.4 160 160 160H832c0 38.4 25.6 64 64 64s64-25.6 64-64V128c0-38.4-25.6-64-64-64zM576 352c0-51.2 44.8-96 96-96h153.6L576 531.2V352z m96 544c-51.2 0-96-44.8-96-96V620.8l249.6 275.2h-153.6z m160-83.2L620.8 576 832 339.2v473.6z" p-id="3596"></path></svg>