<?xml version="1.0" standalone="no"?><!DOCTYPE svg PUBLIC "-//W3C//DTD SVG 1.1//EN" "http://www.w3.org/Graphics/SVG/1.1/DTD/svg11.dtd"><svg t="1654131194033" class="icon" viewBox="0 0 1024 1024" version="1.1" xmlns="http://www.w3.org/2000/svg" p-id="6731" xmlns:xlink="http://www.w3.org/1999/xlink" width="48" height="48"><defs><style type="text/css">@font-face { font-family: feedback-iconfont; src: url("//at.alicdn.com/t/font_1031158_u69w8yhxdu.woff2?t=1630033759944") format("woff2"), url("//at.alicdn.com/t/font_1031158_u69w8yhxdu.woff?t=1630033759944") format("woff"), url("//at.alicdn.com/t/font_1031158_u69w8yhxdu.ttf?t=1630033759944") format("truetype"); }
</style></defs><path d="M768 896H256c-70.6 0-128-57.4-128-128V256c0-70.6 57.4-128 128-128h512c70.6 0 128 57.4 128 128v512c0 70.6-57.4 128-128 128zM256 192c-35.2 0-64 28.8-64 64v512c0 35.2 28.8 64 64 64h512c35.2 0 64-28.8 64-64V256c0-35.2-28.8-64-64-64H256z" p-id="6732"></path><path d="M704 768H320c-35.2 0-64-28.8-64-64V320c0-35.2 28.8-64 64-64h384c35.2 0 64 28.8 64 64v384c0 35.2-28.8 64-64 64zM320 320v384h384V320H320zM672 960c-17.6 0-32-14.4-32-32v-64c0-17.6 14.4-32 32-32s32 14.4 32 32v64c0 17.6-14.4 32-32 32z m-160 0c-17.6 0-32-14.4-32-32v-64c0-17.6 14.4-32 32-32s32 14.4 32 32v64c0 17.6-14.4 32-32 32z m-160 0c-17.6 0-32-14.4-32-32v-64c0-17.6 14.4-32 32-32s32 14.4 32 32v64c0 17.6-14.4 32-32 32z m576-256h-64c-17.6 0-32-14.4-32-32s14.4-32 32-32h64c17.6 0 32 14.4 32 32s-14.4 32-32 32z m-768 0H96c-17.6 0-32-14.4-32-32s14.4-32 32-32h64c17.6 0 32 14.4 32 32s-14.4 32-32 32z m768-160h-64c-17.6 0-32-14.4-32-32s14.4-32 32-32h64c17.6 0 32 14.4 32 32s-14.4 32-32 32z m-768 0H96c-17.6 0-32-14.4-32-32s14.4-32 32-32h64c17.6 0 32 14.4 32 32s-14.4 32-32 32z m768-160h-64c-17.6 0-32-14.4-32-32s14.4-32 32-32h64c17.6 0 32 14.4 32 32s-14.4 32-32 32z m-768 0H96c-17.6 0-32-14.4-32-32s14.4-32 32-32h64c17.6 0 32 14.4 32 32s-14.4 32-32 32z m512-192c-17.6 0-32-14.4-32-32V96c0-17.6 14.4-32 32-32s32 14.4 32 32v64c0 17.6-14.4 32-32 32z m-160 0c-17.6 0-32-14.4-32-32V96c0-17.6 14.4-32 32-32s32 14.4 32 32v64c0 17.6-14.4 32-32 32z m-160 0c-17.6 0-32-14.4-32-32V96c0-17.6 14.4-32 32-32s32 14.4 32 32v64c0 17.6-14.4 32-32 32z" p-id="6733"></path></svg>