<?xml version="1.0" standalone="no"?><!DOCTYPE svg PUBLIC "-//W3C//DTD SVG 1.1//EN" "http://www.w3.org/Graphics/SVG/1.1/DTD/svg11.dtd"><svg t="1653294777471" class="icon" viewBox="0 0 1024 1024" version="1.1" xmlns="http://www.w3.org/2000/svg" p-id="22518" xmlns:xlink="http://www.w3.org/1999/xlink" width="64" height="64"><defs><style type="text/css">@font-face { font-family: feedback-iconfont; src: url("//at.alicdn.com/t/font_1031158_u69w8yhxdu.woff2?t=1630033759944") format("woff2"), url("//at.alicdn.com/t/font_1031158_u69w8yhxdu.woff?t=1630033759944") format("woff"), url("//at.alicdn.com/t/font_1031158_u69w8yhxdu.ttf?t=1630033759944") format("truetype"); }
</style></defs><path d="M988.8 512c0-265.6-214.4-480-476.8-480S35.2 246.4 35.2 512 249.6 992 512 992h294.4c51.2 0 41.6-19.2 41.6-137.6 86.4-86.4 140.8-208 140.8-342.4zM809.6 812.8l-16 16v105.6H512C278.4 934.4 89.6 745.6 89.6 512 89.6 278.4 278.4 89.6 512 89.6s422.4 192 422.4 425.6c0 112-44.8 217.6-124.8 297.6z" p-id="22519"></path><path d="M256 515.2a57.6 57.6 0 1 0 115.2 0 57.6 57.6 0 1 0-115.2 0zM454.4 515.2a57.6 57.6 0 1 0 115.2 0 57.6 57.6 0 1 0-115.2 0zM652.8 515.2a57.6 57.6 0 1 0 115.2 0 57.6 57.6 0 1 0-115.2 0z" p-id="22520"></path></svg>