<?xml version="1.0" standalone="no"?><!DOCTYPE svg PUBLIC "-//W3C//DTD SVG 1.1//EN" "http://www.w3.org/Graphics/SVG/1.1/DTD/svg11.dtd"><svg t="1653981572381" class="icon" viewBox="0 0 1024 1024" version="1.1" xmlns="http://www.w3.org/2000/svg" p-id="2262" xmlns:xlink="http://www.w3.org/1999/xlink" width="48" height="48"><defs><style type="text/css">@font-face { font-family: feedback-iconfont; src: url("//at.alicdn.com/t/font_1031158_u69w8yhxdu.woff2?t=1630033759944") format("woff2"), url("//at.alicdn.com/t/font_1031158_u69w8yhxdu.woff?t=1630033759944") format("woff"), url("//at.alicdn.com/t/font_1031158_u69w8yhxdu.ttf?t=1630033759944") format("truetype"); }
</style></defs><path d="M655.94368 310.31296c0-137.18016-112.94208-248.37632-252.27264-248.37632-6.34368 0-12.5696 0.47616-18.80064 0.93184L162.0224 62.86848l0 0.47104L48.00512 63.33952l0 910.50496 127.98976 0 0-415.9488 207.97952 0c9.76384 1.12128 9.64608 0.79872 19.70176 0.79872C543.00672 558.68928 655.94368 447.50336 655.94368 310.31296zM383.96928 429.9008 175.99488 429.9008 175.99488 189.91616l207.97952 0c60.79488 2.85184 116.52608 58.4448 116.52608 118.99392S444.76416 427.02336 383.96928 429.9008zM967.36768 749.67552c-4.0448-8.0896-15.1808-17.31072-15.1808-17.31072l-45.9008-122.88c-9.52832-23.29088-37.5808-35.57376-49.8176-35.57376l-241.07008 0c-12.24704 0-40.27904 12.28288-49.81248 35.57376l-45.91104 122.88c0 0-11.1104 9.22112-15.19104 17.31072-4.07552 8.05888-8.51456 15.27296-8.51456 69.74464 0 53.15072 10.65984 72.02304 23.3984 78.58176l10.07616 5.69344 0 49.34144c0 15.98976 3.79392 20.74624 18.9952 20.74624l34.08896 0c15.1808 0 25.41568 0.06144 25.41568-15.92832l0-47.98976 255.97952 0 0 47.98976c0 15.98976 10.21952 15.92832 25.40032 15.92832l34.0992 0c15.19104 0 18.98496-4.75648 18.98496-20.74624l0-49.34144 10.07616-5.69344c12.7488-6.5536 23.3984-25.4208 23.41888-78.58176C975.90784 764.94848 971.46368 757.7344 967.36768 749.67552zM580.8128 717.93664c1.90464-6.95808 14.65856-61.44 20.30592-80.32256 2.32448-6.51776 17.42336-25.94304 35.03616-24.83712l199.56224 0c17.60256-1.11104 32.7168 18.31424 35.00032 24.83712 5.67296 18.88256 18.4064 73.36448 20.33664 80.32256 2.27328 8.25344-5.22752 7.53152-5.22752 7.53152l-299.78112 0C586.04544 725.46304 578.52416 726.19008 580.8128 717.93664zM585.74848 851.328c-20.23424 0-36.6848-16.49152-36.6848-36.66432 0-20.21376 16.45056-36.66432 36.6848-36.66432 20.1984 0 36.64384 16.45056 36.64384 36.66432C622.40256 834.8416 605.952 851.328 585.74848 851.328zM887.25504 851.328c-20.21376 0-36.6848-16.49152-36.6848-36.66432 0-20.21376 16.47104-36.66432 36.6848-36.66432 20.19328 0 36.64896 16.45056 36.64896 36.66432C923.904 834.8416 907.44832 851.328 887.25504 851.328z" p-id="2263"></path></svg>