<?xml version="1.0" standalone="no"?><!DOCTYPE svg PUBLIC "-//W3C//DTD SVG 1.1//EN" "http://www.w3.org/Graphics/SVG/1.1/DTD/svg11.dtd"><svg t="1653294526844" class="icon" viewBox="0 0 1024 1024" version="1.1" xmlns="http://www.w3.org/2000/svg" p-id="4872" xmlns:xlink="http://www.w3.org/1999/xlink" width="64" height="64"><defs><style type="text/css">@font-face { font-family: feedback-iconfont; src: url("//at.alicdn.com/t/font_1031158_u69w8yhxdu.woff2?t=1630033759944") format("woff2"), url("//at.alicdn.com/t/font_1031158_u69w8yhxdu.woff?t=1630033759944") format("woff"), url("//at.alicdn.com/t/font_1031158_u69w8yhxdu.ttf?t=1630033759944") format("truetype"); }
</style></defs><path d="M816.672 937.344c-8.192 0-16.384-3.136-22.624-9.376l-213.952-213.952c-12.512-12.512-12.512-32.736 0-45.248s32.736-12.512 45.248 0l191.328 191.328 33.408-33.376-190.848-190.848c-12.512-12.512-12.512-32.736 0-45.248s32.736-12.512 45.248 0l213.472 213.472c6.016 6.016 9.376 14.112 9.376 22.624s-3.36 16.64-9.376 22.624l-78.656 78.624C833.024 934.208 824.832 937.344 816.672 937.344z" p-id="4873"></path><path d="M590.752 128c0-0.032 0-0.064 0-0.064 1.472-4.16 2.048-8.352 1.792-12.512 0 0 0 0 0 0 0 0-0.032-0.064-0.032-0.096-0.256-4.128-1.312-8.096-3.104-11.776-0.352-0.704-0.896-1.248-1.28-1.92-1.632-2.848-3.456-5.472-5.952-7.712-0.928-0.864-2.08-1.376-3.136-2.112-1.92-1.376-3.616-3.008-5.888-3.968-0.608-0.256-1.248-0.384-1.888-0.608-0.032 0-0.064-0.032-0.096-0.032-114.144-46.624-243.808-20.704-331.072 66.592C239.328 154.528 239.04 155.584 238.336 156.416 237.472 157.12 236.448 157.408 235.648 158.208L73.664 319.552c-6.016 6.016-9.408 14.144-9.408 22.656s3.36 16.64 9.376 22.656l98.304 98.304c6.016 6.016 14.144 9.376 22.624 9.376s16.64-3.36 22.624-9.376l56.032-56.032 68.192 68.224c6.24 6.24 14.432 9.376 22.624 9.376s16.384-3.136 22.624-9.376c12.512-12.48 12.512-32.736 0-45.248l-90.816-90.848c-12.512-12.512-32.736-12.512-45.248 0L194.56 395.296l-52.992-53.024 139.264-138.72c0.832-0.8 1.12-1.888 1.824-2.752 0.864-0.704 1.92-0.992 2.72-1.824 40-39.936 91.296-63.072 144.864-68.768-2.208 1.664-4.384 3.392-6.56 5.12-8.96 6.784-17.632 14.016-25.664 22.048-0.544 0.544-0.736 1.248-1.216 1.824-19.232 19.36-35.936 41.024-49.568 64.512-2.464 4.224-4.768 8.448-7.008 12.736l0.416 0.224c-12.288 24.64-12.288 53.664 0.48 78.144 1.536 2.944 3.52 5.504 5.76 7.744 0.768 0.96 1.088 2.112 1.984 2.976l70.432 70.464c6.24 6.24 14.432 9.376 22.624 9.376s16.384-3.136 22.624-9.376c12.512-12.48 12.512-32.736 0-45.248l-67.072-67.072c-2.624-6.112-2.688-13.024 0.448-18.976 0.16-0.288 0.128-0.608 0.256-0.896 1.44-2.656 2.848-5.344 4.384-7.968 11.008-18.944 24.48-36.448 40.064-52.032 4.096-4.096 8.608-7.648 12.96-11.456 30.144-25.28 67.232-40.864 106.816-43.136 0.576-0.032 1.056-0.352 1.632-0.416 3.616-0.384 7.104-1.184 10.368-2.72 0.512-0.256 0.896-0.64 1.376-0.896 3.168-1.696 6.048-3.776 8.512-6.496 0.256-0.288 0.384-0.64 0.608-0.928 2.08-2.464 4.128-4.928 5.44-8.064C590.624 129.12 590.528 128.544 590.752 128z" p-id="4874"></path><path d="M289.536 960.032c-28.384 0-56.928-6.368-82.624-18.432-9.408-4.448-16.096-13.184-17.888-23.456-1.792-10.24 1.504-20.736 8.896-28.128l88.064-88.096-33.056-33.024-87.52 87.488c-7.424 7.424-18.048 10.848-28.384 8.832-10.336-1.888-19.104-8.704-23.392-18.304-32.736-72.64-17.088-159.072 38.944-215.104 50.048-50.08 126.048-68.384 193.952-47.04l238.688-238.72c-21.28-67.712-3.648-143.264 47.04-193.952 36.128-36.16 84.256-56.064 135.456-56.064 27.264 0 54.816 5.92 79.648 17.12 9.568 4.32 16.448 13.056 18.304 23.392 1.92 10.336-1.408 20.96-8.832 28.384l-88.8 88.8 33.024 33.056 89.376-89.344c7.392-7.392 17.92-10.72 28.128-8.896 10.272 1.792 19.04 8.48 23.456 17.888 34.496 73.376 19.424 160.96-37.536 217.92-36.096 36.096-84.128 56-135.296 56-20.704 0-41.536-3.392-61.216-9.952l-237.12 237.12c22.688 68.48 5.44 145.024-46.048 196.544C388.736 940.16 340.672 960.032 289.536 960.032zM282.592 895.84c36.352 2.112 71.36-11.392 96.992-37.024 37.952-37.952 47.936-96.384 24.864-145.408-5.76-12.224-3.232-26.72 6.336-36.256l266.816-266.848c9.536-9.536 24.032-12.032 36.256-6.336 47.936 22.56 108 12.544 145.408-24.864 25.952-25.92 38.784-61.408 36.992-96.96l-72.576 72.544c-6.016 6.016-14.112 9.376-22.624 9.376l0 0c-8.512 0-16.64-3.36-22.624-9.376L700.16 276.416c-12.512-12.512-12.512-32.736 0-45.248l71.04-71.04c-35.072-0.896-68.8 12.384-93.696 37.28-37.92 37.92-48.064 94.272-25.856 143.552 5.44 12.128 2.848 26.368-6.56 35.776l-267.936 267.968c-9.376 9.376-23.648 11.936-35.776 6.56-47.68-21.504-106.624-11.104-143.584 25.856-25.504 25.536-38.464 59.392-37.408 93.856l69.92-69.92c12.512-12.512 32.736-12.512 45.248 0l78.304 78.272c6.016 6.016 9.376 14.112 9.376 22.624 0 8.48-3.36 16.64-9.376 22.624L282.592 895.84z" p-id="4875"></path></svg>